<?xml version="1.0" encoding="UTF-8" standalone="no"?>
<svg
   viewBox="0 0 131.3 187.60001"
   version="1.1"
   id="svg22"
   width="131.3"
   height="187.60001"
   xmlns="http://www.w3.org/2000/svg"
   xmlns:svg="http://www.w3.org/2000/svg">
  <defs
     id="defs26" />
  <polygon
     class="st0"
     points="122.7,115.9 139.6,115.9 139.6,139.6 141.9,141.4 139.2,144.9 135.6,141.2 135.6,120.1 122.7,120.1 "
     style="fill:#ffffff"
     id="polygon2"
     transform="translate(-75.4,-29.6)" />
  <polygon
     class="st0"
     points="159.2,120.1 159.2,115.9 142.3,115.9 142.3,137.3 146.3,137.3 146.3,120.1 "
     style="fill:#ffffff"
     id="polygon4"
     transform="translate(-75.4,-29.6)" />
  <polygon
     class="st0"
     points="141.9,161.4 148.9,161.4 151.3,163.9 154.6,161.1 151.3,157.3 141.9,157.3 141.7,157.3 132.3,157.3 129,161.1 132.3,163.9 134.7,161.4 141.7,161.4 "
     style="fill:#ffffff"
     id="polygon6"
     transform="translate(-75.4,-29.6)" />
  <path
     class="st0"
     d="m 131.3,105.8 c 0,-1 0,-2 -0.1,-3 0,-0.3 0,-0.7 -0.1,-1 0,-0.7 -0.1,-1.3 -0.1,-2 0,-0.4 -0.1,-0.8 -0.1,-1.2 -0.1,-0.6 -0.1,-1.2 -0.2,-1.7 -0.1,-0.4 -0.1,-0.8 -0.2,-1.2 -0.1,-0.5 -0.2,-1.1 -0.3,-1.6 -0.1,-0.4 -0.2,-0.8 -0.2,-1.3 -0.1,-0.5 -0.2,-1 -0.3,-1.6 -0.1,-0.4 -0.2,-0.8 -0.3,-1.3 -0.1,-0.5 -0.3,-1 -0.4,-1.5 -0.1,-0.4 -0.2,-0.8 -0.4,-1.3 -0.1,-0.5 -0.3,-1 -0.4,-1.5 -0.1,-0.4 -0.3,-0.8 -0.4,-1.2 -0.2,-0.5 -0.3,-1 -0.5,-1.4 -0.2,-0.4 -0.3,-0.8 -0.5,-1.2 -0.2,-0.5 -0.4,-0.9 -0.6,-1.4 -0.2,-0.4 -0.3,-0.8 -0.5,-1.2 -0.2,-0.5 -0.4,-0.9 -0.6,-1.3 -0.2,-0.4 -0.4,-0.8 -0.6,-1.2 -0.2,-0.4 -0.4,-0.9 -0.7,-1.3 -0.2,-0.4 -0.4,-0.8 -0.6,-1.2 -0.2,-0.4 -0.5,-0.8 -0.7,-1.3 -0.2,-0.4 -0.4,-0.8 -0.7,-1.1 -0.3,-0.4 -0.5,-0.8 -0.8,-1.2 -0.2,-0.4 -0.5,-0.8 -0.7,-1.1 -0.3,-0.4 -0.6,-0.8 -0.8,-1.2 -0.3,-0.4 -0.5,-0.7 -0.8,-1.1 -0.3,-0.4 -0.6,-0.8 -0.9,-1.2 -0.3,-0.3 -0.5,-0.7 -0.8,-1 -0.5,-0.6 -1,-1.2 -1.5,-1.8 -0.4,-0.5 -0.8,-0.9 -1.2,-1.4 -0.3,-0.3 -0.6,-0.7 -0.9,-1 -0.3,-0.4 -0.7,-0.7 -1,-1.1 -0.3,-0.3 -0.6,-0.6 -0.9,-0.9 -0.4,-0.3 -0.7,-0.7 -1.1,-1 -0.3,-0.3 -0.6,-0.6 -0.9,-0.9 -0.4,-0.3 -0.8,-0.7 -1.1,-1 -0.3,-0.3 -0.6,-0.5 -1,-0.8 -0.4,-0.3 -0.8,-0.6 -1.2,-0.9 -0.3,-0.3 -0.7,-0.5 -1,-0.8 -0.4,-0.3 -0.8,-0.6 -1.2,-0.9 -0.3,-0.2 -0.7,-0.5 -1,-0.7 -0.4,-0.3 -0.8,-0.6 -1.3,-0.9 -0.3,-0.2 -0.7,-0.4 -1,-0.7 -0.4,-0.3 -0.9,-0.5 -1.3,-0.8 C 99,49.2 98.7,49 98.3,48.8 97.8,48.5 97.4,48.3 96.9,48 96.5,47.8 96.2,47.6 95.8,47.4 95.3,47.2 94.9,46.9 94.4,46.7 94,46.5 93.7,46.4 93.3,46.2 92.8,46 92.3,45.8 91.8,45.5 91.4,45.3 91.1,45.2 90.7,45 c -0.5,-0.2 -1,-0.4 -1.5,-0.6 -0.4,-0.1 -0.7,-0.3 -1.1,-0.4 -0.5,-0.2 -1,-0.4 -1.6,-0.6 -0.3,-0.1 -0.7,-0.2 -1,-0.3 -0.6,-0.2 -1.1,-0.4 -1.7,-0.5 -0.3,-0.1 -0.6,-0.2 -0.9,-0.2 -0.6,-0.2 -1.2,-0.3 -1.8,-0.5 0,0 0,0 0,0 2.6,-3.2 13.3,-17.4 10,-33.2 0,0 -9.5,0.9 -17,14 C 74.1,13.8 72.4,3.9 65.7,0 h -0.1 c -6.7,3.9 -8.4,13.7 -8.4,22.7 -7.5,-13.1 -17,-14 -17,-14 -3.3,15.8 7.4,30 10,33.2 0,0 0,0 0,0 -0.6,0.1 -1.2,0.3 -1.8,0.5 -0.3,0.1 -0.6,0.2 -0.9,0.2 -0.6,0.2 -1.1,0.3 -1.7,0.5 -0.3,0.1 -0.7,0.2 -1,0.3 -0.5,0.2 -1,0.4 -1.6,0.6 -0.4,0.1 -0.7,0.3 -1.1,0.4 -0.5,0.2 -1,0.4 -1.5,0.6 -0.4,0.2 -0.7,0.3 -1.1,0.5 -0.5,0.2 -1,0.4 -1.5,0.7 -0.4,0.2 -0.7,0.3 -1.1,0.5 -0.5,0.2 -0.9,0.5 -1.4,0.7 -0.4,0.2 -0.7,0.4 -1.1,0.6 -0.5,0.2 -0.9,0.5 -1.4,0.8 -0.4,0.2 -0.7,0.4 -1.1,0.6 -0.4,0.3 -0.9,0.5 -1.3,0.8 -0.3,0.2 -0.7,0.4 -1,0.7 -0.4,0.3 -0.9,0.6 -1.3,0.9 -0.3,0.2 -0.7,0.5 -1,0.7 -0.4,0.3 -0.8,0.6 -1.2,0.9 -0.3,0.3 -0.7,0.5 -1,0.8 -0.4,0.3 -0.8,0.6 -1.2,0.9 -0.3,0.3 -0.6,0.5 -1,0.8 -0.4,0.3 -0.8,0.7 -1.1,1 -0.3,0.3 -0.6,0.6 -0.9,0.9 -0.4,0.3 -0.7,0.7 -1.1,1 -0.3,0.3 -0.6,0.6 -0.9,0.9 -0.3,0.4 -0.7,0.7 -1,1.1 -0.3,0.3 -0.6,0.6 -0.9,1 -0.4,0.5 -0.8,0.9 -1.2,1.4 -0.5,0.6 -1,1.2 -1.5,1.8 -0.3,0.3 -0.5,0.7 -0.8,1 -0.3,0.4 -0.6,0.8 -0.9,1.2 -0.3,0.4 -0.5,0.7 -0.8,1.1 -0.3,0.4 -0.6,0.8 -0.8,1.2 -0.2,0.4 -0.5,0.7 -0.7,1.1 C 10,71 9.8,71.4 9.5,71.8 9.3,72.2 9.1,72.6 8.8,72.9 8.6,73.3 8.3,73.7 8.1,74.2 7.9,74.6 7.7,75 7.5,75.4 7.3,75.8 7,76.3 6.8,76.7 6.6,77.1 6.4,77.5 6.2,77.9 6,78.3 5.8,78.8 5.6,79.2 5.4,79.6 5.2,80 5.1,80.4 4.9,80.9 4.7,81.3 4.5,81.8 4.3,82.2 4.2,82.6 4,83 c -0.2,0.5 -0.3,0.9 -0.5,1.4 -0.1,0.4 -0.3,0.8 -0.4,1.2 -0.2,0.5 -0.3,1 -0.4,1.5 -0.1,0.4 -0.2,0.8 -0.4,1.3 -0.1,0.5 -0.3,1 -0.4,1.5 -0.1,0.4 -0.2,0.8 -0.3,1.3 -0.1,0.5 -0.2,1 -0.3,1.6 -0.1,0.4 -0.2,0.8 -0.2,1.3 -0.1,0.5 -0.2,1.1 -0.3,1.6 -0.1,0.4 -0.1,0.8 -0.2,1.2 -0.1,0.6 -0.1,1.2 -0.2,1.7 0,0.4 -0.1,0.8 -0.1,1.2 -0.1,0.6 -0.1,1.3 -0.1,2 0,0.3 0,0.7 -0.1,1 0,1 -0.1,2 -0.1,3 0,3.2 0.2,6.3 0.7,9.3 -0.3,2.4 -0.4,4.8 -0.4,7.2 0,28.1 17.8,52.1 42.8,61.3 1,0.4 2,0.7 3,1 3.1,1 6.2,1.7 9.5,2.2 3.3,0.5 6.6,0.8 9.9,0.8 3.4,0 6.7,-0.3 9.9,-0.8 3.2,-0.5 6.4,-1.2 9.5,-2.2 1,-0.3 2,-0.7 3,-1 25,-9.1 42.8,-33.1 42.8,-61.3 0,-2.4 -0.1,-4.8 -0.4,-7.2 0.8,-3 1,-6.1 1,-9.3 z M 86.8,21.5 c 0.4,0.2 -1.3,4.2 -3.7,9 -2.4,4.7 -4.7,8.4 -5.1,8.2 -0.4,-0.2 1.3,-4.2 3.7,-9 2.4,-4.7 4.7,-8.4 5.1,-8.2 z M 77,26.9 c 2.4,-4.7 4.7,-8.4 5.1,-8.2 0.4,0.2 -1.3,4.2 -3.7,9 -2.4,4.7 -4.7,8.4 -5.1,8.2 -0.4,-0.2 1.3,-4.2 3.7,-9 z M 69,12.2 c 0.6,0 1,5.6 1,12.5 0,3.3 -0.1,6.2 -0.3,8.5 -0.3,1 -0.6,2 -0.9,3.1 -0.1,0 -0.2,-0.1 -0.3,-0.1 -0.4,-1.9 -0.6,-6.3 -0.6,-11.5 0,-6.9 0.5,-12.5 1.1,-12.5 z m -6.4,0 c 0.6,0 1,5.6 1,12.5 0,5.1 -0.3,9.6 -0.6,11.5 -0.1,0 -0.2,0 -0.3,0.1 C 62.4,35.2 62.1,34.2 61.8,33.2 61.6,31 61.5,28 61.5,24.7 61.6,17.8 62.1,12.2 62.6,12.2 Z m -4.1,32.4 c 1.3,-2.8 4,-4.7 7.3,-4.7 3.3,0 6,1.9 7.3,4.7 0,0 0,0 0,0 0.4,1 0.7,2.1 0.7,3.2 0,0.3 0,0.6 0,0.8 -0.4,4 -3.8,7.2 -8,7.2 -4.1,0 -7.6,-3.2 -8,-7.2 0,-0.3 0,-0.6 0,-0.8 0,-1.2 0.3,-2.2 0.7,-3.2 0,0 0,0 0,0 z m -9,-25.9 c 0.4,-0.2 2.7,3.5 5.1,8.2 2.4,4.7 4.1,8.8 3.7,9 -0.4,0.2 -2.7,-3.5 -5.1,-8.2 -2.5,-4.8 -4.1,-8.8 -3.7,-9 z m -1,11.8 c -2.4,-4.7 -4.1,-8.8 -3.7,-9 0.4,-0.2 2.7,3.5 5.1,8.2 2.4,4.7 4.1,8.8 3.7,9 -0.3,0.2 -2.6,-3.5 -5.1,-8.2 z M 19.2,162.3 c -0.2,-0.2 -0.3,-0.4 -0.4,-0.5 -0.6,-0.7 -1.2,-1.5 -1.8,-2.3 -0.2,-0.2 -0.3,-0.4 -0.5,-0.7 -0.2,-0.3 -0.5,-0.7 -0.7,-1 -0.2,-0.3 -0.5,-0.6 -0.7,-1 -0.2,-0.3 -0.4,-0.7 -0.7,-1 -0.2,-0.3 -0.4,-0.7 -0.7,-1 -0.2,-0.3 -0.4,-0.7 -0.6,-1 -0.2,-0.4 -0.4,-0.7 -0.7,-1.1 -0.2,-0.3 -0.4,-0.6 -0.5,-1 -0.2,-0.4 -0.4,-0.8 -0.6,-1.2 -0.2,-0.3 -0.3,-0.6 -0.5,-0.9 -0.2,-0.5 -0.5,-1 -0.7,-1.5 C 10,147.9 9.9,147.6 9.8,147.4 9.5,146.7 9.2,145.9 8.9,145.2 8.8,145 8.8,144.9 8.7,144.7 8.5,144.1 8.2,143.5 8,142.9 7.9,142.6 7.8,142.3 7.7,142.1 7.5,141.6 7.4,141.1 7.2,140.6 7.1,140.3 7,140 6.9,139.7 c -0.1,-0.5 -0.3,-1 -0.4,-1.5 -0.1,-0.3 -0.2,-0.6 -0.2,-0.9 -0.1,-0.5 -0.2,-1 -0.4,-1.5 -0.1,-0.3 -0.1,-0.6 -0.2,-0.9 -0.1,-0.6 -0.2,-1.1 -0.3,-1.7 0,-0.3 -0.1,-0.5 -0.1,-0.8 -0.1,-0.8 -0.2,-1.6 -0.3,-2.4 0,0 0,0 0,-0.1 0.4,1 0.8,1.9 1.2,2.9 0.1,0.1 0.1,0.3 0.2,0.4 0.9,1.9 1.8,3.7 2.8,5.5 0.1,0.2 0.2,0.4 0.3,0.5 0.4,0.7 0.9,1.5 1.3,2.2 0.1,0.2 0.2,0.3 0.3,0.5 0.5,0.8 1,1.6 1.6,2.3 0.2,0.3 0.4,0.5 0.6,0.8 0.4,0.5 0.8,1.1 1.2,1.6 0.2,0.3 0.4,0.5 0.6,0.8 0.6,0.7 1.1,1.3 1.7,2 0.2,0.3 0.5,0.5 0.7,0.8 0.4,0.5 0.8,0.9 1.3,1.3 0.2,0.2 0.3,0.3 0.5,0.5 v 10.3 z m 0,-16.2 C 12.9,138.8 8.3,130 5.9,120.4 c 1.8,1.6 4.2,2.5 6.8,2.5 2.4,0 4.6,-0.8 6.4,-2.2 v 25.4 z m 0,-30.6 c -1.2,2.4 -3.6,4 -6.4,4 -4,0 -7.2,-3.2 -7.2,-7.2 0,-4 3.2,-7.2 7.2,-7.2 2.8,0 5.3,1.6 6.4,4 z m 0,-11.6 c -1.8,-1.4 -4,-2.2 -6.4,-2.2 -1.9,0 -3.7,0.5 -5.3,1.4 0,-0.1 0.1,-0.2 0.1,-0.2 0.3,-0.8 0.6,-1.6 0.9,-2.4 0.1,-0.1 0.1,-0.3 0.2,-0.4 0.3,-0.8 0.6,-1.5 0.9,-2.3 0.1,-0.2 0.1,-0.3 0.2,-0.5 0.3,-0.7 0.7,-1.5 1,-2.2 0.1,-0.2 0.2,-0.3 0.3,-0.5 0.4,-0.7 0.7,-1.4 1.1,-2.1 0.1,-0.2 0.2,-0.3 0.3,-0.5 0.4,-0.7 0.8,-1.4 1.2,-2.1 0.1,-0.1 0.2,-0.3 0.3,-0.4 0.5,-0.7 1,-1.5 1.5,-2.2 0,-0.1 0.1,-0.1 0.1,-0.2 1.1,-1.6 2.3,-3.2 3.6,-4.7 z m 2.6,-29.7 c -0.4,0.3 -0.7,0.7 -1.1,1 -0.2,0.2 -0.4,0.4 -0.6,0.5 -0.4,0.3 -0.7,0.7 -1,1 -0.2,0.2 -0.4,0.4 -0.6,0.6 -0.4,0.4 -0.7,0.8 -1.1,1.1 -0.2,0.2 -0.3,0.3 -0.5,0.5 -0.3,0.4 -0.7,0.8 -1,1.2 -0.2,0.2 -0.3,0.4 -0.5,0.6 -0.3,0.4 -0.6,0.8 -0.9,1.2 -0.2,0.2 -0.3,0.4 -0.5,0.6 -0.3,0.4 -0.6,0.8 -0.9,1.3 -0.1,0.2 -0.3,0.4 -0.4,0.6 -0.3,0.4 -0.6,0.8 -0.9,1.3 -0.1,0.2 -0.3,0.4 -0.4,0.6 -0.3,0.4 -0.6,0.9 -0.8,1.3 -0.1,0.2 -0.3,0.4 -0.4,0.6 C 9.9,88.6 9.7,89.1 9.4,89.5 9.3,89.7 9.1,89.9 9,90.1 8.7,90.6 8.5,91 8.2,91.5 8.1,91.7 8,91.9 7.9,92.1 7.7,92.6 7.4,93 7.2,93.5 7.1,93.7 7,93.9 6.9,94.1 c -0.3,0.7 -0.6,1.3 -0.9,2 0,0 0,0 0,0.1 -0.3,0.6 -0.5,1.2 -0.8,1.8 0,0.1 -0.1,0.2 -0.1,0.3 -0.3,0.7 -0.6,1.4 -0.8,2.2 0.1,-1.7 0.4,-3.4 0.7,-5.1 0,-0.2 0.1,-0.5 0.1,-0.7 0.1,-0.6 0.2,-1.2 0.4,-1.8 0,-0.2 0.1,-0.3 0.1,-0.5 0.1,-0.7 0.3,-1.3 0.5,-2 C 6.1,90.2 6.2,90.1 6.2,90 6.4,89.3 6.6,88.7 6.8,88 6.9,87.8 6.9,87.6 7,87.4 7.2,86.8 7.4,86.2 7.6,85.6 7.7,85.4 7.7,85.2 7.8,85 8,84.4 8.2,83.8 8.5,83.2 8.6,83 8.6,82.9 8.7,82.7 c 0.2,-0.6 0.5,-1.2 0.8,-1.8 0.1,-0.1 0.1,-0.3 0.2,-0.4 0.3,-0.6 0.6,-1.2 0.9,-1.8 0.1,-0.1 0.1,-0.2 0.2,-0.4 0.3,-0.6 0.6,-1.2 1,-1.8 0.1,-0.1 0.1,-0.2 0.2,-0.3 0.3,-0.6 0.7,-1.2 1,-1.8 0.1,-0.1 0.1,-0.2 0.2,-0.3 0.4,-0.6 0.8,-1.2 1.1,-1.8 0,-0.1 0.1,-0.1 0.1,-0.2 0.4,-0.6 0.8,-1.2 1.3,-1.8 0,-0.1 0.1,-0.1 0.1,-0.2 0.4,-0.6 0.9,-1.2 1.4,-1.8 0,0 0,-0.1 0.1,-0.1 0.5,-0.6 1,-1.2 1.5,-1.8 0,0 0,0 0,0 8.9,-10.6 21.4,-18.2 35.6,-20.9 -0.2,0.8 -0.3,1.7 -0.3,2.6 0,4 2,7.5 5,9.7 -0.5,0.1 -1,0.1 -1.5,0.2 -0.3,0 -0.5,0.1 -0.8,0.1 -0.5,0.1 -1,0.2 -1.5,0.2 -0.3,0 -0.5,0.1 -0.8,0.1 -0.5,0.1 -1,0.2 -1.6,0.3 -0.2,0.1 -0.5,0.1 -0.8,0.1 -0.5,0.1 -1,0.2 -1.6,0.4 -0.2,0.1 -0.5,0.1 -0.7,0.2 -0.5,0.1 -1,0.3 -1.6,0.4 -0.2,0.1 -0.5,0.1 -0.7,0.2 -0.5,0.1 -1,0.3 -1.5,0.5 -0.2,0.1 -0.5,0.1 -0.7,0.2 -0.5,0.2 -1,0.3 -1.5,0.5 -0.2,0.1 -0.5,0.2 -0.7,0.2 -0.5,0.2 -1,0.4 -1.4,0.6 -0.2,0.1 -0.5,0.2 -0.7,0.3 -0.5,0.2 -1,0.4 -1.4,0.6 -0.2,0.1 -0.4,0.2 -0.7,0.3 -0.5,0.2 -1,0.5 -1.4,0.7 -0.2,0.1 -0.4,0.2 -0.6,0.3 -0.5,0.2 -0.9,0.5 -1.4,0.7 -0.2,0.1 -0.4,0.2 -0.6,0.3 -0.5,0.3 -0.9,0.5 -1.4,0.8 -0.2,0.1 -0.4,0.2 -0.6,0.3 -0.5,0.3 -0.9,0.6 -1.4,0.8 -0.2,0.1 -0.4,0.2 -0.6,0.4 -0.5,0.3 -0.9,0.6 -1.4,0.9 -0.2,0.1 -0.4,0.2 -0.5,0.4 -0.4,0.3 -0.9,0.6 -1.3,0.9 -0.2,0.1 -0.4,0.3 -0.6,0.4 -0.4,0.3 -0.8,0.6 -1.2,0.9 -0.2,0.1 -0.4,0.3 -0.6,0.4 -0.4,0.3 -0.8,0.7 -1.2,1 -0.2,0.2 -0.4,0.3 -0.5,0.5 -0.4,0.3 -0.8,0.7 -1.2,1 -0.2,0 -0.4,0.1 -0.6,0.3 z m 6.4,96.6 c -0.1,0 -0.1,-0.1 -0.2,-0.1 -0.7,-0.6 -1.4,-1.1 -2.1,-1.7 -0.1,-0.1 -0.2,-0.2 -0.3,-0.3 -0.7,-0.6 -1.4,-1.3 -2.1,-1.9 0,0 -0.1,-0.1 -0.1,-0.1 v -11.1 c 0.1,0 0.1,0.1 0.2,0.1 0.7,0.6 1.4,1.1 2.1,1.7 0.1,0.1 0.2,0.1 0.3,0.2 0.8,0.6 1.5,1.2 2.3,1.7 v 11.5 z m 0,-16.1 c -1.7,-1.3 -3.3,-2.7 -4.8,-4.1 v -47 l 4.8,4.8 z m 8.9,21.9 c -0.1,-0.1 -0.2,-0.1 -0.3,-0.2 -0.7,-0.4 -1.3,-0.7 -2,-1.1 -0.1,-0.1 -0.2,-0.1 -0.4,-0.2 -0.7,-0.4 -1.3,-0.8 -2,-1.2 0,0 -0.1,0 -0.1,-0.1 v -11.7 c 0.1,0.1 0.3,0.1 0.4,0.2 0.6,0.3 1.1,0.6 1.7,1 0.2,0.1 0.5,0.3 0.7,0.4 0.5,0.3 1,0.5 1.5,0.8 0.1,0.1 0.3,0.1 0.4,0.2 v 11.9 z m 0,-16.2 c -1.6,-0.9 -3.2,-1.8 -4.7,-2.8 v -25.1 l 4.7,4.7 z m 8.5,19.9 c 0,0 -0.1,0 -0.1,0 -0.6,-0.2 -1.2,-0.5 -1.9,-0.7 -0.2,-0.1 -0.3,-0.1 -0.5,-0.2 -0.6,-0.2 -1.1,-0.5 -1.7,-0.7 -0.1,0 -0.2,-0.1 -0.2,-0.1 v -12.1 c 0,0 0,0 0,0 0.7,0.3 1.4,0.5 2.1,0.8 0,0 0.1,0 0.1,0.1 0.7,0.2 1.3,0.5 2,0.7 0,0 0.1,0 0.1,0 v 12.2 z m 0,-16.2 c -1.5,-0.5 -2.9,-1.1 -4.4,-1.7 v -21 l 4.4,4.4 z M 59,183.4 c -0.1,0 -0.3,0 -0.4,0 -0.6,-0.1 -1.2,-0.2 -1.8,-0.2 -0.1,0 -0.3,0 -0.4,-0.1 -2.2,-0.3 -4.4,-0.8 -6.6,-1.4 v -12.3 c 0.2,0 0.3,0.1 0.5,0.1 0.5,0.1 1,0.2 1.5,0.3 0.3,0.1 0.6,0.1 0.9,0.2 0.5,0.1 1,0.2 1.5,0.3 0.3,0.1 0.6,0.1 0.9,0.2 0.5,0.1 1,0.2 1.5,0.2 0.3,0 0.6,0.1 0.9,0.1 0.5,0.1 1,0.1 1.4,0.2 0.2,0 0.4,0 0.6,0.1 -1.7,1.6 -2.8,3.9 -2.8,6.4 -0.1,2.2 0.8,4.3 2.3,5.9 z m -9.2,-18 v -3.8 l 7.7,5.4 c -2.6,-0.4 -5.2,-0.9 -7.7,-1.6 z m 16,16.4 c -2.2,-0.3 -4,-2.1 -4,-4.5 0,-2.3 1.7,-4.2 4,-4.5 2.2,0.3 4,2.1 4,4.5 0,2.4 -1.7,4.3 -4,4.5 z m 16.1,-0.2 c -2.2,0.6 -4.4,1 -6.6,1.4 -0.1,0 -0.3,0 -0.4,0.1 -0.6,0.1 -1.2,0.2 -1.8,0.2 -0.1,0 -0.3,0 -0.4,0 1.5,-1.6 2.4,-3.7 2.4,-6 0,-2.5 -1.1,-4.8 -2.8,-6.4 0.2,0 0.4,0 0.6,-0.1 0.5,-0.1 1,-0.1 1.4,-0.2 0.3,0 0.6,-0.1 0.9,-0.1 0.5,-0.1 1,-0.1 1.5,-0.2 0.3,0 0.6,-0.1 0.9,-0.2 0.5,-0.1 1,-0.2 1.5,-0.3 0.3,-0.1 0.6,-0.1 0.9,-0.2 0.5,-0.1 1,-0.2 1.5,-0.3 0.2,0 0.3,-0.1 0.5,-0.1 v 12.4 z m 0,-16.2 c -2.5,0.7 -5.1,1.2 -7.7,1.5 l 7.7,-5.4 z m -3.3,-12.1 v 0 l 3.3,-3.3 v 6.5 l -15.9,11 c -0.1,0 -0.1,0 -0.2,0 -0.1,0 -0.1,0 -0.2,0 l -15.9,-11 V 150 l 3.2,3.2 0.1,0.1 h 0.5 13.9 4.5 6.1 0.6 m 0,0 m 11.8,25.3 c -0.1,0 -0.2,0.1 -0.2,0.1 -0.6,0.2 -1.1,0.5 -1.7,0.7 -0.2,0.1 -0.3,0.1 -0.5,0.2 -0.6,0.2 -1.2,0.5 -1.9,0.7 0,0 -0.1,0 -0.1,0 v -12.2 c 0,0 0.1,0 0.1,0 0.7,-0.2 1.4,-0.5 2,-0.7 0,0 0.1,0 0.1,-0.1 0.7,-0.3 1.4,-0.5 2.1,-0.8 0,0 0,0 0,0 v 12.1 z m 0,-16.2 c -1.4,0.6 -2.9,1.2 -4.4,1.7 v -18.3 l 4.4,-4.4 z m 8.9,11.4 c 0,0 -0.1,0.1 0,0 -0.7,0.5 -1.4,0.9 -2.1,1.3 -0.1,0.1 -0.2,0.1 -0.4,0.2 -0.6,0.4 -1.3,0.7 -2,1.1 -0.1,0.1 -0.2,0.1 -0.3,0.2 v -12 c 0.1,-0.1 0.3,-0.1 0.4,-0.2 0.5,-0.3 1,-0.5 1.5,-0.8 0.2,-0.1 0.5,-0.3 0.7,-0.4 0.6,-0.3 1.1,-0.6 1.7,-1 0.1,-0.1 0.3,-0.1 0.4,-0.2 v 11.8 z m 0,-16.2 c -1.5,1 -3.1,1.9 -4.7,2.8 v -23.1 l 4.7,-4.7 z m 9,9.1 c 0,0 -0.1,0 0,0 -0.8,0.7 -1.5,1.4 -2.2,2 -0.1,0.1 -0.2,0.2 -0.3,0.3 -0.7,0.6 -1.4,1.2 -2.1,1.7 -0.1,0 -0.1,0.1 -0.2,0.1 v -11.4 c 0.8,-0.6 1.6,-1.1 2.3,-1.7 0.1,-0.1 0.2,-0.1 0.3,-0.2 0.7,-0.5 1.4,-1.1 2.1,-1.7 0.1,0 0.1,-0.1 0.2,-0.1 v 11 z m 0,-16.2 c -1.5,1.5 -3.1,2.8 -4.8,4.1 v -46.2 l 4.8,-4.8 z m 0,-51.1 -0.9,-0.9 -4,4 V 75.7 h -4.2 v 31 l -11.4,11.4 3,3 8.5,-8.5 v 14.1 L 76.8,149.2 H 72 67.5 54.8 L 32.3,126.7 v -14.1 l 8.5,8.5 3,-3 -11.4,-11.4 v -31 h -4.2 v 26.8 l -4,-4 -0.9,0.9 V 78 c 0,0 0.1,-0.1 0.1,-0.1 0.6,-0.6 1.3,-1.2 2,-1.8 0.1,-0.1 0.1,-0.1 0.2,-0.2 0.7,-0.6 1.3,-1.1 2,-1.7 0.1,-0.1 0.2,-0.1 0.2,-0.2 0.7,-0.5 1.3,-1 2,-1.5 0.1,-0.1 0.2,-0.1 0.3,-0.2 0.7,-0.5 1.3,-0.9 2,-1.4 0.1,-0.1 0.3,-0.2 0.4,-0.2 0.7,-0.4 1.3,-0.8 2,-1.3 0.2,-0.1 0.3,-0.2 0.5,-0.3 0.7,-0.4 1.3,-0.8 2,-1.1 0.2,-0.1 0.4,-0.2 0.5,-0.3 0.7,-0.3 1.3,-0.7 2,-1 0.2,-0.1 0.4,-0.2 0.6,-0.3 0.6,-0.3 1.3,-0.6 2,-0.9 0.2,-0.1 0.5,-0.2 0.7,-0.3 0.6,-0.3 1.3,-0.5 1.9,-0.7 0.3,-0.1 0.5,-0.2 0.8,-0.3 0.6,-0.2 1.3,-0.4 1.9,-0.6 0.3,-0.1 0.6,-0.2 0.9,-0.3 0.6,-0.2 1.3,-0.4 1.9,-0.5 0.3,-0.1 0.6,-0.2 0.9,-0.2 0.6,-0.2 1.2,-0.3 1.9,-0.4 0.3,-0.1 0.7,-0.1 1,-0.2 0.6,-0.1 1.2,-0.2 1.9,-0.3 0.3,-0.1 0.7,-0.1 1,-0.2 0.6,-0.1 1.3,-0.2 1.9,-0.2 0.3,0 0.7,-0.1 1,-0.1 0.7,-0.1 1.4,-0.1 2.1,-0.2 0.3,0 0.6,-0.1 0.9,-0.1 1,0 2,-0.1 3,-0.1 1,0 2,0 3,0.1 0.3,0 0.6,0 0.9,0.1 0.7,0 1.4,0.1 2.1,0.2 0.3,0 0.7,0.1 1,0.1 0.6,0.1 1.3,0.1 1.9,0.2 0.3,0.1 0.7,0.1 1,0.2 0.6,0.1 1.2,0.2 1.9,0.3 0.3,0.1 0.7,0.1 1,0.2 0.6,0.1 1.2,0.3 1.9,0.4 0.3,0.1 0.6,0.2 0.9,0.2 0.6,0.2 1.3,0.3 1.9,0.5 0.3,0.1 0.6,0.2 0.9,0.3 0.6,0.2 1.3,0.4 1.9,0.6 0.3,0.1 0.5,0.2 0.8,0.3 0.7,0.2 1.3,0.5 1.9,0.7 0.2,0.1 0.5,0.2 0.7,0.3 0.7,0.3 1.3,0.6 2,0.9 0.2,0.1 0.4,0.2 0.6,0.3 0.7,0.3 1.3,0.6 2,1 0.2,0.1 0.4,0.2 0.5,0.3 0.7,0.4 1.3,0.7 2,1.1 0.2,0.1 0.3,0.2 0.5,0.3 0.7,0.4 1.4,0.8 2,1.3 0.1,0.1 0.3,0.2 0.4,0.2 0.7,0.4 1.4,0.9 2,1.4 0.1,0.1 0.2,0.1 0.3,0.2 0.7,0.5 1.4,1 2,1.5 0.1,0.1 0.2,0.1 0.2,0.2 0.7,0.5 1.3,1.1 2,1.7 0.1,0.1 0.1,0.1 0.2,0.2 0.7,0.6 1.3,1.2 2,1.8 0,0 0.1,0.1 0.1,0.1 z m 18.5,30.3 c -0.1,0.8 -0.2,1.6 -0.3,2.4 0,0.3 -0.1,0.5 -0.1,0.8 -0.1,0.6 -0.2,1.1 -0.3,1.7 -0.1,0.3 -0.1,0.6 -0.2,0.9 -0.1,0.5 -0.2,1 -0.4,1.5 -0.1,0.3 -0.2,0.6 -0.2,0.9 -0.1,0.5 -0.3,1 -0.4,1.5 -0.1,0.3 -0.2,0.6 -0.3,0.9 -0.2,0.5 -0.3,1 -0.5,1.5 -0.1,0.3 -0.2,0.6 -0.3,0.8 -0.2,0.6 -0.4,1.2 -0.7,1.8 -0.1,0.2 -0.1,0.3 -0.2,0.5 -0.3,0.8 -0.6,1.5 -0.9,2.2 -0.1,0.2 -0.2,0.5 -0.3,0.7 -0.2,0.5 -0.5,1 -0.7,1.5 -0.2,0.3 -0.3,0.6 -0.5,0.9 -0.2,0.4 -0.4,0.8 -0.6,1.2 -0.2,0.3 -0.4,0.6 -0.5,1 -0.2,0.4 -0.4,0.8 -0.7,1.1 -0.2,0.3 -0.4,0.7 -0.6,1 -0.2,0.4 -0.4,0.7 -0.7,1 -0.2,0.3 -0.4,0.7 -0.7,1 -0.2,0.3 -0.4,0.6 -0.7,1 -0.2,0.3 -0.5,0.7 -0.7,1 -0.2,0.2 -0.3,0.5 -0.5,0.7 -0.6,0.8 -1.2,1.5 -1.8,2.3 -0.1,0.2 -0.3,0.4 -0.4,0.5 v -10.5 c 0.2,-0.2 0.3,-0.3 0.5,-0.5 0.4,-0.4 0.8,-0.9 1.3,-1.3 0.2,-0.3 0.5,-0.5 0.7,-0.8 0.6,-0.7 1.1,-1.3 1.7,-2 0.2,-0.3 0.4,-0.5 0.6,-0.8 0.4,-0.5 0.8,-1.1 1.2,-1.6 0.2,-0.2 0.4,-0.5 0.6,-0.8 0.5,-0.8 1.1,-1.5 1.6,-2.3 0.1,-0.2 0.2,-0.3 0.3,-0.5 0.5,-0.7 0.9,-1.4 1.3,-2.2 0.1,-0.2 0.2,-0.4 0.3,-0.5 1,-1.8 2,-3.6 2.8,-5.5 0.1,-0.1 0.1,-0.3 0.2,-0.4 0.3,-0.7 0.7,-1.7 1.1,-2.6 0,0 0,0 0,0 z m -7.9,-24.6 c 4,0 7.2,3.2 7.2,7.2 0,4 -3.2,7.2 -7.2,7.2 -2.8,0 -5.3,-1.6 -6.4,-4 v -6.4 c 1.1,-2.3 3.6,-4 6.4,-4 z m -6.4,-1.2 V 82.4 c 1.3,1.5 2.5,3 3.6,4.7 0,0.1 0.1,0.1 0.1,0.2 0.5,0.7 1,1.5 1.5,2.2 0.1,0.1 0.2,0.3 0.3,0.4 0.4,0.7 0.8,1.4 1.2,2.1 0.1,0.2 0.2,0.3 0.3,0.5 0.4,0.7 0.8,1.4 1.1,2.1 0.1,0.2 0.2,0.3 0.3,0.5 0.4,0.7 0.7,1.4 1,2.2 0.1,0.2 0.1,0.3 0.2,0.5 0.3,0.8 0.6,1.5 0.9,2.3 0.1,0.1 0.1,0.3 0.2,0.4 0.3,0.8 0.6,1.6 0.9,2.4 0,0.1 0.1,0.2 0.1,0.2 -1.6,-0.9 -3.3,-1.4 -5.3,-1.4 -2.4,0 -4.6,0.8 -6.4,2.2 z m 6.4,19 c 2.6,0 5,-0.9 6.8,-2.5 -2.4,9.7 -7,18.4 -13.3,25.7 v -25.4 c 1.9,1.4 4.1,2.2 6.5,2.2 z m 7.5,-24.6 c 0,-0.1 -0.1,-0.2 -0.1,-0.3 -0.2,-0.6 -0.5,-1.2 -0.8,-1.8 0,0 0,0 0,-0.1 -0.3,-0.7 -0.6,-1.4 -0.9,-2 -0.1,-0.2 -0.2,-0.4 -0.3,-0.6 -0.2,-0.5 -0.5,-1 -0.7,-1.4 -0.1,-0.2 -0.2,-0.4 -0.3,-0.6 -0.3,-0.5 -0.5,-0.9 -0.8,-1.4 -0.1,-0.2 -0.2,-0.4 -0.4,-0.6 -0.3,-0.4 -0.5,-0.9 -0.8,-1.3 -0.1,-0.2 -0.3,-0.4 -0.4,-0.6 -0.3,-0.4 -0.6,-0.9 -0.8,-1.3 -0.1,-0.2 -0.3,-0.4 -0.4,-0.6 -0.3,-0.4 -0.6,-0.9 -0.9,-1.3 -0.1,-0.2 -0.3,-0.4 -0.4,-0.6 -0.3,-0.4 -0.6,-0.8 -0.9,-1.3 -0.2,-0.2 -0.3,-0.4 -0.5,-0.6 -0.3,-0.4 -0.6,-0.8 -0.9,-1.2 -0.2,-0.2 -0.3,-0.4 -0.5,-0.6 -0.3,-0.4 -0.7,-0.8 -1,-1.2 -0.2,-0.2 -0.3,-0.3 -0.5,-0.5 -0.3,-0.4 -0.7,-0.8 -1.1,-1.1 -0.2,-0.2 -0.4,-0.4 -0.6,-0.6 -0.3,-0.4 -0.7,-0.7 -1,-1 -0.2,-0.2 -0.4,-0.4 -0.6,-0.5 -0.4,-0.3 -0.7,-0.7 -1.1,-1 -0.2,-0.2 -0.3,-0.3 -0.5,-0.5 -0.4,-0.3 -0.8,-0.7 -1.2,-1 -0.2,-0.2 -0.4,-0.3 -0.5,-0.5 -0.4,-0.3 -0.8,-0.7 -1.2,-1 -0.2,-0.1 -0.4,-0.3 -0.6,-0.4 -0.4,-0.3 -0.8,-0.6 -1.2,-0.9 -0.2,-0.1 -0.4,-0.3 -0.6,-0.4 -0.4,-0.3 -0.9,-0.6 -1.3,-0.9 -0.2,-0.1 -0.4,-0.2 -0.5,-0.4 -0.4,-0.3 -0.9,-0.6 -1.4,-0.9 -0.2,-0.1 -0.4,-0.2 -0.6,-0.4 C 99.6,66.6 99.2,66.3 98.7,66.1 98.5,66 98.3,65.9 98.1,65.8 97.6,65.5 97.2,65.3 96.7,65 96.5,64.9 96.3,64.8 96.1,64.7 95.6,64.5 95.2,64.2 94.7,64 94.5,63.9 94.3,63.8 94.1,63.7 93.6,63.5 93.1,63.2 92.7,63 92.5,62.9 92.3,62.8 92,62.7 91.5,62.5 91,62.3 90.6,62.1 90.4,62 90.1,61.9 89.9,61.8 89.4,61.6 88.9,61.4 88.5,61.2 88.3,61.1 88,61 87.8,61 c -0.5,-0.2 -1,-0.4 -1.5,-0.5 -0.2,-0.1 -0.5,-0.1 -0.7,-0.2 -0.5,-0.2 -1,-0.3 -1.5,-0.5 -0.2,-0.1 -0.5,-0.1 -0.7,-0.2 -0.5,-0.1 -1,-0.3 -1.6,-0.4 -0.2,-0.1 -0.5,-0.1 -0.7,-0.2 -0.5,-0.1 -1,-0.3 -1.6,-0.4 -0.2,-0.1 -0.5,-0.1 -0.8,-0.1 -0.5,-0.1 -1,-0.2 -1.6,-0.3 -0.3,0 -0.5,-0.1 -0.8,-0.1 -0.5,-0.1 -1,-0.2 -1.5,-0.2 -0.3,0 -0.5,-0.1 -0.8,-0.1 -0.5,-0.1 -1,-0.1 -1.5,-0.2 3,-2.2 5,-5.7 5,-9.7 0,-0.9 -0.1,-1.7 -0.3,-2.6 14.2,2.7 26.7,10.3 35.6,20.9 0,0 0,0 0,0 0.5,0.6 1,1.2 1.5,1.8 0,0 0,0.1 0.1,0.1 0.5,0.6 0.9,1.2 1.4,1.8 0,0.1 0.1,0.1 0.1,0.2 0.4,0.6 0.8,1.2 1.3,1.8 0,0.1 0.1,0.1 0.1,0.2 0.4,0.6 0.8,1.2 1.1,1.8 0.1,0.1 0.1,0.2 0.2,0.3 0.4,0.6 0.7,1.2 1,1.8 0.1,0.1 0.1,0.2 0.2,0.3 0.3,0.6 0.6,1.2 1,1.8 0.1,0.1 0.1,0.2 0.2,0.4 0.3,0.6 0.6,1.2 0.9,1.8 0.1,0.1 0.1,0.3 0.2,0.4 0.3,0.6 0.5,1.2 0.8,1.8 0.1,0.2 0.1,0.3 0.2,0.5 0.2,0.6 0.4,1.2 0.7,1.8 0.1,0.2 0.1,0.4 0.2,0.6 0.2,0.6 0.4,1.2 0.6,1.8 0.1,0.2 0.1,0.4 0.2,0.6 0.2,0.7 0.4,1.3 0.6,2 0,0.2 0.1,0.3 0.1,0.4 0.2,0.6 0.3,1.3 0.5,2 0,0.2 0.1,0.3 0.1,0.5 0.1,0.6 0.2,1.2 0.4,1.8 0,0.2 0.1,0.5 0.1,0.7 0.3,1.7 0.5,3.4 0.7,5.1 -0.3,-0.6 -0.6,-1.3 -0.9,-2 z"
     style="fill:#ffffff"
     id="path8" />
</svg>
