<?xml version="1.0" encoding="UTF-8" standalone="no"?>
<!-- Created with Inkscape (http://www.inkscape.org/) -->

<svg
   width="107.09613mm"
   height="16.06242mm"
   viewBox="0 0 107.09614 16.06242"
   version="1.1"
   id="svg26175"
   xmlns="http://www.w3.org/2000/svg"
   xmlns:svg="http://www.w3.org/2000/svg">
  <defs
     id="defs26172" />
  <g
     id="g24273-0-7"
     transform="matrix(0.26458333,0,0,0.26458333,-17.044066,-101.12189)">
    <g
       id="g24266-6-5">
      <g
         aria-label="Find"
         transform="translate(-0.3967775,-64.767142)"
         id="text21725-9-2-3"
         style="font-weight:bold;font-size:82.6667px;-inkscape-font-specification:'sans-serif Bold';letter-spacing:-3.6px;stroke-width:8">
        <path
           d="m 328.81901,459.19058 v 17.59897 h 29.10287 v 9.20313 h -29.10287 v 20.8685 h -11.90756 v -56.87373 h 41.93882 v 9.20313 z"
           id="path1170" />
        <path
           d="m 364.04976,506.86118 v -43.6745 h 11.34245 v 43.6745 z m 0,-51.5456 v -8.35547 h 11.34245 v 8.35547 z"
           id="path1172" />
        <path
           d="m 411.7128,506.86118 v -24.50132 q 0,-11.50391 -7.79037,-11.50391 -4.11719,0 -6.66016,3.55209 -2.50261,3.51172 -2.50261,9.04167 v 23.41147 h -11.34245 v -33.90627 q 0,-3.51172 -0.12109,-5.73177 -0.0807,-2.26042 -0.20183,-4.03646 h 10.81772 q 0.12109,0.76692 0.32291,4.11719 0.20183,3.30989 0.20183,4.5612 h 0.16146 q 2.30078,-5.00521 5.77213,-7.26563 3.47136,-2.26042 8.27475,-2.26042 6.94271,0 10.65625,4.27865 3.71354,4.27865 3.71354,12.51302 v 27.73049 z"
           id="path1174" />
        <path
           d="m 458.60891,506.86118 q -0.16145,-0.60547 -0.40364,-3.02735 -0.20182,-2.46224 -0.20182,-4.07682 h -0.16146 q -3.67318,7.91146 -13.96616,7.91146 -7.6289,0 -11.78646,-5.9336 -4.15755,-5.97396 -4.15755,-16.67058 0,-10.85808 4.35937,-16.75131 4.39975,-5.93359 12.4323,-5.93359 4.64193,0 7.99219,1.9375 3.39063,1.9375 5.20704,5.77213 h 0.0807 l -0.0807,-7.18489 v -15.94402 h 11.34245 v 50.37502 q 0,4.03646 0.32292,9.52605 z m -0.52474,-22.07944 q 0,-7.06381 -2.38151,-10.85808 -2.34114,-3.83464 -6.94271,-3.83464 -4.5612,0 -6.78125,3.71355 -2.22005,3.67318 -2.22005,11.26172 0,14.85417 8.92057,14.85417 4.48047,0 6.94271,-3.91536 2.46224,-3.95573 2.46224,-11.22136 z"
           id="path1176" />
      </g>
      <g
         aria-label="Check"
         transform="translate(-0.3967775,-64.767142)"
         id="text21725-1-6"
         style="font-weight:bold;font-size:82.6667px;-inkscape-font-specification:'sans-serif Bold';stroke-width:8">
        <path
           d="m 93.514525,498.30388 q 10.777345,0 14.975265,-10.81771 l 10.3737,3.91536 q -3.35026,8.23438 -9.84896,12.27084 -6.45833,3.9961 -15.500005,3.9961 -13.723964,0 -21.23178,-7.75001 -7.467451,-7.79036 -7.467451,-21.75652 0,-14.00651 7.225263,-21.51433 7.225264,-7.50781 20.949228,-7.50781 10.010425,0 16.307295,4.03646 6.29688,3.99609 8.83985,11.78646 l -10.49479,2.86589 q -1.33204,-4.27865 -5.2474,-6.78126 -3.875005,-2.54297 -9.162767,-2.54297 -8.07292,0 -12.270839,5.00521 -4.157554,5.00521 -4.157554,14.65235 0,9.8086 4.278648,14.97527 4.319012,5.16667 12.432297,5.16667 z"
           id="path1149" />
        <path
           d="m 138.07705,471.90543 q 2.30078,-5.00521 5.77213,-7.26563 3.47136,-2.26041 8.27475,-2.26041 6.94271,0 10.65625,4.27864 3.71354,4.27865 3.71354,12.51303 v 27.69012 h -11.30208 v -24.46095 q 0,-11.50391 -7.79037,-11.50391 -4.11719,0 -6.66016,3.55208 -2.50261,3.51172 -2.50261,9.04167 v 23.37111 h -11.34245 v -59.90107 h 11.34245 v 16.34766 q 0,4.39974 -0.32291,8.59766 z"
           id="path1151" />
        <path
           d="m 195.27368,507.66847 q -9.84896,0 -15.13672,-5.8125 -5.28777,-5.85287 -5.28777,-17.03387 0,-10.81771 5.3685,-16.63021 5.36849,-5.8125 15.21745,-5.8125 9.40495,0 14.3698,6.25651 4.96484,6.21615 4.96484,18.2448 v 0.32291 h -28.01303 q 0,6.37761 2.34115,9.64714 2.38151,3.22917 6.74089,3.22917 6.01432,0 7.58854,-5.20703 l 10.69662,0.92838 q -4.64193,11.8672 -18.85027,11.8672 z m 0,-38.14455 q -3.99609,0 -6.17578,2.78516 -2.13933,2.78515 -2.26042,7.79037 h 16.95313 q -0.32291,-5.28777 -2.54297,-7.91147 -2.22005,-2.66406 -5.97396,-2.66406 z"
           id="path1153" />
        <path
           d="m 241.57188,507.66847 q -9.92969,0 -15.33855,-5.89323 -5.40886,-5.9336 -5.40886,-16.50913 0,-10.81771 5.44923,-16.83203 5.44922,-6.05469 15.45964,-6.05469 7.70964,0 12.75521,3.875 5.04558,3.875 6.33724,10.69662 l -11.42318,0.5651 q -0.48437,-3.35026 -2.42187,-5.32813 -1.93751,-2.01823 -5.48959,-2.01823 -8.75912,0 -8.75912,14.65235 0,15.09636 8.92058,15.09636 3.22917,0 5.40885,-2.01823 2.17969,-2.05859 2.70443,-6.09505 l 11.38282,0.52474 q -0.60547,4.48047 -3.22917,7.99219 -2.58333,3.51172 -6.82162,5.44922 -4.23828,1.89714 -9.52604,1.89714 z"
           id="path1155" />
        <path
           d="m 297.23466,506.86118 -11.66537,-19.77866 -4.88411,3.39063 v 16.38803 h -11.34245 v -59.90107 h 11.34245 v 34.30991 l 15.58073,-18.08334 h 12.19011 l -15.33855,17.03386 16.50913,26.64064 z"
           id="path1157" />
      </g>
    </g>
  </g>
</svg>
